<svg width="20" height="20" viewBox="0 0 20 20" fill="none" xmlns="http://www.w3.org/2000/svg">
<g clip-path="url(#clip0_2919_6046)">
<path d="M4.99023 1.35156C4.24045 2.0849 3.66154 2.97502 3.2959 3.95801C2.93034 4.94093 2.78672 5.99312 2.875 7.03809C3.16596 10.7112 6.62998 13.701 9.77148 13.7012C12.6939 13.7011 13.8382 11.1495 13.5557 9.41699C13.4513 8.78082 13.1785 8.18381 12.7646 7.68945C13.2912 7.97274 13.8007 8.33688 14.2715 8.77344C15.5381 9.95257 16.3052 11.4643 16.4277 13.0234C16.7001 16.4691 14.1497 19.9999 9.88574 20C8.47334 19.9999 6.98525 19.6403 5.73535 19.0479C2.34642 17.4478 0.000127527 13.9975 0 10.002C1.40908e-05 6.30947 2.00441 3.08322 4.99023 1.35156ZM10.1133 0C11.5266 2.76512e-05 13.0146 0.359671 14.2637 0.952148C17.6552 2.55213 19.9999 6.00241 20 9.99805C20 13.6905 17.9956 16.9176 15.0098 18.6484C15.7596 17.9151 16.3385 17.025 16.7041 16.042C17.0697 15.0589 17.2134 14.0061 17.125 12.9609C16.8338 9.28807 13.3699 6.29905 10.2285 6.29883C7.30614 6.29892 6.16184 8.85054 6.44434 10.583C6.54874 11.2197 6.82295 11.8169 7.23828 12.3105C6.69131 12.0154 6.18385 11.6506 5.72949 11.2266C4.46304 10.0475 3.69644 8.53724 3.57227 6.97656C3.2999 3.53107 5.84982 0.000578588 10.1133 0Z" fill="#363636"/>
</g>
<defs>
<clipPath id="clip0_2919_6046">
<rect width="20" height="20" fill="white"/>
</clipPath>
</defs>
</svg>
